<svg width="22" height="22" viewBox="0 0 22 22" fill="none" xmlns="http://www.w3.org/2000/svg">
<g clip-path="url(#clip0_2_556)">
<path d="M15.5831 10.0835H6.4164C5.40388 10.0835 4.58307 10.9043 4.58307 11.9168V17.4168C4.58307 18.4294 5.40388 19.2502 6.4164 19.2502H15.5831C16.5956 19.2502 17.4164 18.4294 17.4164 17.4168V11.9168C17.4164 10.9043 16.5956 10.0835 15.5831 10.0835Z" stroke="black" stroke-width="1.375" stroke-linecap="round" stroke-linejoin="round"/>
<path d="M10.9997 15.5833C11.506 15.5833 11.9164 15.1729 11.9164 14.6667C11.9164 14.1604 11.506 13.75 10.9997 13.75C10.4935 13.75 10.0831 14.1604 10.0831 14.6667C10.0831 15.1729 10.4935 15.5833 10.9997 15.5833Z" stroke="black" stroke-width="1.375" stroke-linecap="round" stroke-linejoin="round"/>
<path d="M7.33307 10.0833V6.41667C7.33307 5.44421 7.71938 4.51157 8.40701 3.82394C9.09464 3.13631 10.0273 2.75 10.9997 2.75C11.9722 2.75 12.9048 3.13631 13.5925 3.82394C14.2801 4.51157 14.6664 5.44421 14.6664 6.41667V10.0833" stroke="black" stroke-width="1.375" stroke-linecap="round" stroke-linejoin="round"/>
</g>
<defs>
<clipPath id="clip0_2_556">
<rect width="22" height="22" fill="white"/>
</clipPath>
</defs>
</svg>
