<svg width="112" height="26" viewBox="0 0 112 26" fill="none" xmlns="http://www.w3.org/2000/svg">
<path d="M11.7033 17.5896H7.58292L6.23254 25.1725H0L4.3974 0.242377H14.9581C17.5665 0.242377 19.4247 0.842548 20.5328 2.04289C21.3407 2.96623 21.7446 4.14349 21.7446 5.57466C21.7446 6.05941 21.6985 6.56725 21.6061 7.09817L20.9136 11.0108C20.5674 12.9267 19.5517 14.508 17.8666 15.7545C16.1815 16.9779 14.1271 17.5896 11.7033 17.5896ZM12.7767 5.64391H9.66044L8.5178 12.1881H11.5994C13.4923 12.1881 14.5888 11.3455 14.8888 9.66044L15.1312 8.2408C15.1774 8.03305 15.2005 7.75605 15.2005 7.4098C15.2005 7.06355 15.0273 6.68267 14.6811 6.26716C14.3348 5.85166 13.7 5.64391 12.7767 5.64391Z" fill="white"/>
<path d="M53.565 25.1725H22.0803L26.4777 0.242377H57.9624L56.9929 5.64391H31.7408L30.9444 10.3183H54.2575L53.288 15.7198H29.9749L29.2824 19.771H54.5345L53.565 25.1725Z" fill="white"/>
<path d="M83.6514 5.64391H75.1336L71.7057 25.1725H65.4386L68.8665 5.64391H60.314L61.2835 0.242377H84.6209L83.6514 5.64391Z" fill="white"/>
<path d="M89.6862 18.0744C89.6862 19.6671 90.8288 20.4635 93.1141 20.4635C95.4225 20.4635 96.5766 19.7479 96.5766 18.3167C96.5766 17.555 96.1842 16.9317 95.3994 16.447C94.6145 15.9622 93.6566 15.5583 92.5255 15.2351C91.4175 14.9119 90.2979 14.5426 89.1668 14.1271C88.0588 13.6885 87.1124 13.0191 86.3276 12.1188C85.5427 11.1955 85.1503 10.0529 85.1503 8.69093C85.1503 2.89698 88.8783 0 96.3343 0C99.0581 0 101.113 0.519378 102.498 1.55814C103.906 2.57381 104.61 3.99344 104.61 5.81704C104.61 6.48646 104.517 7.1328 104.333 7.75605C104.171 8.35622 103.998 8.78326 103.813 9.03718L103.536 9.45268H97.4076C97.9155 8.92176 98.1694 8.25234 98.1694 7.44442C98.1694 5.944 97.1884 5.19378 95.2263 5.19378C92.7563 5.19378 91.5213 5.97862 91.5213 7.5483C91.5213 8.33314 91.9138 8.95639 92.6986 9.41806C93.4835 9.87973 94.4299 10.2491 95.5379 10.5261C96.669 10.78 97.8001 11.1032 98.9312 11.4956C100.062 11.888 101.02 12.5459 101.805 13.4692C102.59 14.3695 102.982 15.5467 102.982 17.001C102.982 19.9326 102.105 22.114 100.351 23.5451C98.5964 24.9532 95.8957 25.6573 92.2485 25.6573C88.6013 25.6573 86.1083 25.0109 84.7694 23.7183C83.7768 22.7488 83.2805 21.4099 83.2805 19.7017C83.2805 19.0554 83.3498 18.3514 83.4883 17.5896L83.5922 17.0356H89.8247L89.7555 17.4511C89.7093 17.6819 89.6862 17.8897 89.6862 18.0744Z" fill="white"/>
<path d="M105.04 23.1643C105.04 21.6869 105.364 20.6135 106.01 19.9441C106.656 19.2516 107.683 18.9054 109.091 18.9054C111.03 18.9054 112 19.7595 112 21.4676C112 22.9219 111.665 23.9837 110.996 24.6532C110.35 25.3226 109.322 25.6573 107.914 25.6573C105.998 25.6573 105.04 24.8263 105.04 23.1643Z" fill="#FFBA40"/>
</svg>
