<svg width="285" height="244" viewBox="0 0 285 244" fill="none" xmlns="http://www.w3.org/2000/svg">
<path d="M219.53 101C219.53 120.465 212.989 138.514 202.029 153.025C196.018 160.811 188.771 167.712 180.462 173.021C167.027 181.868 150.941 187 133.617 187C86.0639 186.823 47.5269 148.247 47.5269 101C47.5269 53.3992 86.0639 15 133.44 15C150.764 15 166.85 20.1317 180.285 28.8025C188.594 34.1111 195.842 41.0123 201.852 48.7984C212.989 63.3086 219.53 81.358 219.53 101Z" fill="#EAEEF9"/>
<path d="M42.7537 164.527C44.3447 164.527 45.7589 163.288 45.7589 161.518C45.7589 159.926 44.5215 158.51 42.7537 158.51C41.1627 158.51 39.7485 159.749 39.7485 161.518C39.9253 163.288 41.1627 164.527 42.7537 164.527Z" fill="url(#paint0_linear_477_4995)"/>
<path d="M185.235 23.1399C186.826 23.1399 188.24 21.9012 188.24 20.1316C188.24 18.5391 187.003 17.1234 185.235 17.1234C183.644 17.1234 182.23 18.3621 182.23 20.1316C182.23 21.7242 183.644 23.1399 185.235 23.1399Z" fill="url(#paint1_linear_477_4995)"/>
<path d="M238.444 74.6338C241.096 72.1564 241.273 68.0865 238.798 65.4322C236.323 62.7778 232.257 62.6009 229.429 65.0783C226.777 67.5556 226.601 71.6256 229.075 74.2799C231.55 76.9342 235.793 77.1112 238.444 74.6338Z" fill="#EAEEF9"/>
<path d="M237.03 45.967C238.621 45.967 239.859 44.7283 239.859 43.1357C239.859 41.5431 238.621 40.3044 237.03 40.3044C235.439 40.3044 234.202 41.5431 234.202 43.1357C234.202 44.7283 235.439 45.967 237.03 45.967Z" fill="url(#paint2_linear_477_4995)"/>
<g filter="url(#filter0_d_477_4995)">
<path d="M195.767 59.1176L197.079 172.852C197.079 176.627 193.964 179.745 190.193 179.745H79.6889C75.918 179.745 72.8029 176.627 72.8029 172.852V26.6221C72.8029 22.8474 75.918 19.7291 79.6889 19.7291H159.862L195.767 59.1176Z" fill="white"/>
</g>
<path d="M159.862 19.8932V51.2399C159.862 55.5069 163.633 59.2817 168.059 59.2817H195.931" fill="#F0F4F8"/>
<path d="M94.4448 76.5141C93.789 76.5141 93.1332 75.8576 93.1332 75.2011C93.1332 74.5447 93.789 73.8882 94.4448 73.8882H173.142C173.798 73.8882 174.454 74.5447 174.454 75.2011C174.454 75.8576 173.798 76.5141 173.142 76.5141H94.4448Z" fill="#CED7E2"/>
<path d="M94.4448 86.6896C93.789 86.6896 93.1332 86.0331 93.1332 85.3767C93.1332 84.7202 93.789 84.0637 94.4448 84.0637H173.142C173.798 84.0637 174.454 84.7202 174.454 85.3767C174.454 86.0331 173.798 86.6896 173.142 86.6896H94.4448Z" fill="#CED7E2"/>
<path d="M94.4448 96.7006C93.789 96.7006 93.1332 96.0441 93.1332 95.3877C93.1332 94.7312 93.789 94.0747 94.4448 94.0747H173.142C173.798 94.0747 174.454 94.7312 174.454 95.3877C174.454 96.0441 173.798 96.7006 173.142 96.7006H94.4448Z" fill="#CED7E2"/>
<path d="M94.4448 106.876C93.789 106.876 93.1332 106.22 93.1332 105.563C93.1332 104.907 93.789 104.25 94.4448 104.25H173.142C173.798 104.25 174.454 104.907 174.454 105.563C174.454 106.22 173.798 106.876 173.142 106.876H94.4448Z" fill="#CED7E2"/>
<path d="M94.4448 116.887C93.789 116.887 93.1332 116.231 93.1332 115.574C93.1332 114.918 93.789 114.261 94.4448 114.261H173.142C173.798 114.261 174.454 114.918 174.454 115.574C174.454 116.231 173.798 116.887 173.142 116.887H94.4448Z" fill="#CED7E2"/>
<path d="M94.4448 126.899C93.789 126.899 93.1332 126.242 93.1332 125.586C93.1332 124.929 93.789 124.273 94.4448 124.273H129.039C129.695 124.273 130.35 124.929 130.35 125.586C130.35 126.242 129.695 126.899 129.039 126.899H94.4448Z" fill="#CED7E2"/>
<path d="M131.334 51.404H94.6088C93.789 51.404 93.1332 50.7475 93.1332 49.9269C93.1332 49.1063 93.789 48.4498 94.6088 48.4498H131.334C132.154 48.4498 132.81 49.1063 132.81 49.9269C132.81 50.5834 132.154 51.404 131.334 51.404Z" fill="#CED7E2"/>
<path d="M112.807 59.1175H94.6088C93.789 59.1175 93.1332 58.461 93.1332 57.6404C93.1332 56.8198 93.789 56.1633 94.6088 56.1633H112.807C113.627 56.1633 114.283 56.8198 114.283 57.6404C114.283 58.461 113.627 59.1175 112.807 59.1175Z" fill="#CED7E2"/>
<path d="M166.912 157.589C166.584 155.291 166.42 153.65 164.78 152.993C162.157 152.337 161.337 155.783 158.714 158.573C157.894 159.394 156.747 160.05 155.763 160.707C155.435 160.871 154.779 161.199 154.615 160.543C153.959 158.573 154.615 159.558 157.402 156.44C158.714 154.963 159.534 153.158 159.206 150.86C159.042 149.547 158.222 148.398 156.911 147.906C155.599 147.413 154.287 147.577 153.304 148.726C151.008 151.516 151.664 153.322 151.5 157.425C151.5 157.753 151.336 158.081 151.008 158.245C148.713 159.558 146.254 160.379 143.303 160.707C143.303 160.543 143.303 160.543 143.303 160.543C144.778 158.573 147.729 154.963 148.385 149.055C148.713 146.757 148.713 144.459 147.565 142.326C145.434 138.387 139.532 138.879 136.908 143.639C134.285 148.89 134.777 156.768 138.384 161.363C137.564 162.02 136.908 162.676 136.089 163.169C135.597 163.497 135.433 164.318 135.761 164.81C136.089 165.466 137.072 165.631 137.728 165.138C140.351 163.005 140.187 163.169 140.515 163.005C141.007 162.841 141.499 163.005 141.991 163.005C143.794 163.005 144.942 162.841 146.254 162.676C146.909 162.512 151.336 160.871 151.5 160.871C151.5 160.871 151.5 161.035 151.664 161.199C152.156 163.005 153.14 163.661 155.107 163.497C156.583 163.333 157.894 162.676 159.042 161.692C160.354 160.379 162.485 157.753 163.633 156.112C163.961 157.26 163.961 158.245 164.288 159.23C164.944 161.035 166.748 161.363 167.895 159.886C169.207 158.409 169.699 156.44 171.174 155.619C171.666 155.455 171.994 154.963 171.994 154.47C171.994 153.486 171.011 152.993 170.191 153.322C168.879 154.142 167.895 155.783 166.912 157.589ZM140.515 159.886C139.204 158.245 138.712 156.44 138.384 154.306C137.728 151.352 138.056 148.234 139.204 145.444C139.86 143.967 140.679 142.818 142.319 142.49C143.958 142.162 145.106 142.49 145.434 144.131C146.909 149.875 144.614 155.291 140.515 159.886ZM154.451 151.188C155.435 149.219 156.583 151.024 156.419 151.845C156.091 152.829 155.599 153.65 155.107 154.47C154.779 154.963 154.451 155.291 153.959 155.783C153.795 154.142 153.795 152.665 154.451 151.188Z" fill="url(#paint3_linear_477_4995)"/>
<path d="M108.217 164.318C107.069 165.466 105.43 166.123 104.118 165.138C102.151 163.661 101.495 163.333 100.183 163.169C98.5436 163.005 97.068 162.841 96.5761 161.035C96.4122 160.543 96.4122 160.215 96.4122 159.722C96.2482 158.574 95.7564 157.425 94.9366 156.44C93.7889 155.127 92.9692 153.978 93.7889 152.501C94.7727 150.86 95.7564 150.203 95.7564 148.234C95.7564 147.578 95.7564 147.085 95.9203 146.593C96.2482 145.28 97.3959 144.295 98.7075 144.295C99.1994 144.295 99.6912 144.131 100.183 144.131C101.823 143.967 102.314 142.818 104.446 141.998C105.102 141.669 105.757 141.833 106.413 142.162C106.905 142.49 107.397 142.818 108.053 143.31C109.528 144.459 110.512 143.967 112.643 144.623C113.627 144.952 114.119 145.772 114.283 146.593C114.283 147.578 114.611 148.726 114.939 149.547C115.759 151.188 117.398 152.009 117.234 153.814C117.234 154.142 117.07 154.635 116.906 154.799C116.086 155.783 115.431 157.096 114.939 158.409C114.775 158.902 114.775 159.23 114.775 159.722C114.775 160.707 114.447 161.528 113.791 162.02C111.824 163.989 110.02 162.512 108.217 164.318ZM97.8878 158.245C100.511 162.02 105.594 163.169 109.528 160.543C113.299 158.245 114.283 152.993 111.988 149.383C111.988 149.383 111.988 149.219 111.824 149.219C109.364 145.444 103.954 144.295 100.183 146.921C96.4122 149.219 95.4285 154.471 97.7238 158.081C97.8878 158.081 97.8878 158.245 97.8878 158.245Z" fill="#CED7E2"/>
<path d="M101.003 148.07C104.118 145.936 108.545 146.757 110.84 150.039C112.972 152.993 112.152 157.261 109.201 159.394L109.037 159.558C105.922 161.692 101.495 160.707 99.1995 157.589C97.0681 154.635 97.8879 150.368 100.839 148.234C100.839 148.07 100.839 148.07 101.003 148.07Z" fill="#CED7E2"/>
<path d="M193.013 101.177C194.251 100.823 194.958 99.4074 194.604 98.1687C194.251 96.93 192.836 96.2222 191.599 96.5761C190.362 96.93 189.654 98.3456 190.008 99.5843C190.362 100.823 191.776 101.531 193.013 101.177Z" fill="#EAEEF9"/>
<g filter="url(#filter1_d_477_4995)">
<path d="M245.516 98.3457V176.56C245.516 177.798 244.808 178.86 243.748 179.391C235.793 182.93 225.186 185.23 213.342 185.23C201.675 185.23 191.069 183.107 182.937 179.391C181.876 178.86 181.169 177.798 181.169 176.56V98.3457C181.169 96.2222 182.937 94.6297 185.058 94.6297H241.626C243.748 94.4527 245.516 96.2222 245.516 98.3457Z" fill="#CED7E2"/>
</g>
<path d="M245.516 98.3457V122.058H181.169V98.3457C181.169 96.2222 182.937 94.6297 185.058 94.6297H241.626C243.748 94.4527 245.516 96.2222 245.516 98.3457Z" fill="#CED7E2"/>
<path d="M240.742 99.7615H185.942V116.926H240.566V99.7615H240.742Z" fill="white"/>
<path d="M239.328 101.354V115.687H187.356V101.354H239.328ZM242.157 98.3458H239.328H187.356H184.528V101.177V115.51V118.342H187.356H239.152H241.98V115.51V101.177V98.3458H242.157Z" fill="#A3AFC2"/>
<path d="M196.902 136.391H190.361C189.124 136.391 188.24 135.506 188.24 134.268V130.729C188.24 129.49 189.124 128.605 190.361 128.605H196.902C198.14 128.605 199.023 129.49 199.023 130.729V134.268C199.2 135.329 198.14 136.391 196.902 136.391Z" fill="url(#paint4_linear_477_4995)"/>
<path d="M196.902 146.124H190.361C189.124 146.124 188.24 145.239 188.24 144V140.461C188.24 139.222 189.124 138.338 190.361 138.338H196.902C198.14 138.338 199.023 139.222 199.023 140.461V144C199.2 145.062 198.14 146.124 196.902 146.124Z" fill="#A3AFC2"/>
<path d="M196.902 155.856H190.361C189.124 155.856 188.24 154.971 188.24 153.733V150.193C188.24 148.955 189.124 148.07 190.361 148.07H196.902C198.14 148.07 199.023 148.955 199.023 150.193V153.733C199.2 154.971 198.14 155.856 196.902 155.856Z" fill="#A3AFC2"/>
<path d="M196.902 165.589H190.361C189.124 165.589 188.24 164.704 188.24 163.465V159.926C188.24 158.687 189.124 157.802 190.361 157.802H196.902C198.14 157.802 199.023 158.687 199.023 159.926V163.465C199.2 164.527 198.14 165.589 196.902 165.589Z" fill="#A3AFC2"/>
<path d="M196.902 175.321H190.361C189.124 175.321 188.24 174.436 188.24 173.198V169.659C188.24 168.42 189.124 167.535 190.361 167.535H196.902C198.14 167.535 199.023 168.42 199.023 169.659V173.198C199.2 174.436 198.14 175.321 196.902 175.321Z" fill="#A3AFC2"/>
<path d="M210.691 136.391H204.15C202.913 136.391 202.029 135.506 202.029 134.268V130.729C202.029 129.49 202.913 128.605 204.15 128.605H210.691C211.928 128.605 212.812 129.49 212.812 130.729V134.268C212.812 135.329 211.928 136.391 210.691 136.391Z" fill="#A3AFC2"/>
<path d="M210.691 146.124H204.15C202.913 146.124 202.029 145.239 202.029 144V140.461C202.029 139.222 202.913 138.338 204.15 138.338H210.691C211.928 138.338 212.812 139.222 212.812 140.461V144C212.812 145.062 211.928 146.124 210.691 146.124Z" fill="#A3AFC2"/>
<path d="M210.691 155.856H204.15C202.913 155.856 202.029 154.971 202.029 153.733V150.193C202.029 148.955 202.913 148.07 204.15 148.07H210.691C211.928 148.07 212.812 148.955 212.812 150.193V153.733C212.812 154.971 211.928 155.856 210.691 155.856Z" fill="#A3AFC2"/>
<path d="M210.691 165.589H204.15C202.913 165.589 202.029 164.704 202.029 163.465V159.926C202.029 158.687 202.913 157.802 204.15 157.802H210.691C211.928 157.802 212.812 158.687 212.812 159.926V163.465C212.812 164.527 211.928 165.589 210.691 165.589Z" fill="#A3AFC2"/>
<path d="M210.691 175.321H204.15C202.913 175.321 202.029 174.436 202.029 173.198V169.659C202.029 168.42 202.913 167.535 204.15 167.535H210.691C211.928 167.535 212.812 168.42 212.812 169.659V173.198C212.812 174.436 211.928 175.321 210.691 175.321Z" fill="#A3AFC2"/>
<path d="M224.302 136.391H217.762C216.524 136.391 215.64 135.506 215.64 134.268V130.729C215.64 129.49 216.524 128.605 217.762 128.605H224.302C225.54 128.605 226.424 129.49 226.424 130.729V134.268C226.6 135.329 225.54 136.391 224.302 136.391Z" fill="#A3AFC2"/>
<path d="M224.302 146.124H217.762C216.524 146.124 215.64 145.239 215.64 144V140.461C215.64 139.222 216.524 138.338 217.762 138.338H224.302C225.54 138.338 226.424 139.222 226.424 140.461V144C226.6 145.062 225.54 146.124 224.302 146.124Z" fill="#A3AFC2"/>
<path d="M224.302 155.856H217.762C216.524 155.856 215.64 154.971 215.64 153.733V150.193C215.64 148.955 216.524 148.07 217.762 148.07H224.302C225.54 148.07 226.424 148.955 226.424 150.193V153.733C226.6 154.971 225.54 155.856 224.302 155.856Z" fill="#A3AFC2"/>
<path d="M224.302 165.589H217.762C216.524 165.589 215.64 164.704 215.64 163.465V159.926C215.64 158.687 216.524 157.802 217.762 157.802H224.302C225.54 157.802 226.424 158.687 226.424 159.926V163.465C226.6 164.527 225.54 165.589 224.302 165.589Z" fill="#A3AFC2"/>
<path d="M224.302 175.321H217.762C216.524 175.321 215.64 174.436 215.64 173.198V169.659C215.64 168.42 216.524 167.535 217.762 167.535H224.302C225.54 167.535 226.424 168.42 226.424 169.659V173.198C226.6 174.436 225.54 175.321 224.302 175.321Z" fill="#A3AFC2"/>
<path d="M237.914 136.391H231.373C230.136 136.391 229.252 135.506 229.252 134.268V130.729C229.252 129.49 230.136 128.605 231.373 128.605H237.914C239.151 128.605 240.035 129.49 240.035 130.729V134.268C240.035 135.329 239.151 136.391 237.914 136.391Z" fill="#A3AFC2"/>
<path d="M237.914 146.124H231.373C230.136 146.124 229.252 145.239 229.252 144V140.461C229.252 139.222 230.136 138.338 231.373 138.338H237.914C239.151 138.338 240.035 139.222 240.035 140.461V144C240.035 145.062 239.151 146.124 237.914 146.124Z" fill="#A3AFC2"/>
<path d="M237.914 155.856H231.373C230.136 155.856 229.252 154.971 229.252 153.733V150.193C229.252 148.955 230.136 148.07 231.373 148.07H237.914C239.151 148.07 240.035 148.955 240.035 150.193V153.733C240.035 154.971 239.151 155.856 237.914 155.856Z" fill="#A3AFC2"/>
<path d="M237.914 165.589H231.373C230.136 165.589 229.252 164.704 229.252 163.465V159.926C229.252 158.687 230.136 157.802 231.373 157.802H237.914C239.151 157.802 240.035 158.687 240.035 159.926V163.465C240.035 164.527 239.151 165.589 237.914 165.589Z" fill="#A3AFC2"/>
<path d="M237.914 175.321H231.373C230.136 175.321 229.252 174.436 229.252 173.198V169.659C229.252 168.42 230.136 167.535 231.373 167.535H237.914C239.151 167.535 240.035 168.42 240.035 169.659V173.198C240.035 174.436 239.151 175.321 237.914 175.321Z" fill="#A3AFC2"/>
<path d="M234.909 104.184L235.97 103.123H230.666L231.727 104.184H234.909Z" fill="#A3AFC2"/>
<path d="M231.904 112.325L230.843 113.386H236.146L235.086 112.325H231.904Z" fill="#A3AFC2"/>
<path d="M235.086 109.14V112.148L236.146 113.21V108.963L235.616 108.432L235.086 109.14Z" fill="#A3AFC2"/>
<path d="M235.086 104.362V107.547L235.793 108.078L236.323 107.547V103.301L235.086 104.362Z" fill="#A3AFC2"/>
<path d="M231.727 107.547V104.362L230.666 103.301V107.547L231.02 108.078L231.727 107.547Z" fill="#A3AFC2"/>
<path d="M231.727 109.14L231.02 108.432L230.666 108.963V113.387L231.727 112.325V109.14Z" fill="#A3AFC2"/>
<g filter="url(#filter2_d_477_4995)">
<path d="M88.3619 101.885C88.3619 106.486 87.478 111.086 85.887 115.156C81.998 125.42 73.5127 133.383 63.083 136.745C59.5475 137.984 55.6584 138.514 51.7693 138.514C31.4401 138.691 15 122.235 15 101.885C15 81.535 31.4401 65.2551 51.7693 65.2551C71.9218 65.2551 88.3619 81.7119 88.3619 101.885Z" fill="url(#paint5_linear_477_4995)"/>
</g>
<path d="M85.0032 111.086C80.9374 121.35 71.2147 131.967 60.785 135.506L39.5719 113.387L61.1385 113.033L46.8197 95.3374L51.0623 87.0205L51.5926 84.3662L55.1282 81.181L85.0032 111.086Z" fill="url(#paint6_linear_477_4995)"/>
<path d="M62.3759 89.6747L58.3101 93.9216C58.3101 93.9216 56.012 91.2673 52.4765 91.2673C49.8249 91.2673 48.2339 92.8598 48.2339 94.6294C48.2339 100.469 63.9669 97.1068 63.9669 108.432C63.9669 113.21 60.9617 117.103 55.3049 118.164V122.588H49.4713V118.341C43.1074 117.457 39.9254 113.387 39.9254 113.387L43.9913 109.317C43.9913 109.317 46.6429 112.679 51.4158 112.679C54.7746 112.679 56.7191 110.909 56.7191 108.609C56.7191 102.769 40.9861 106.131 40.9861 94.8063C40.9861 90.5594 44.168 86.6664 49.2945 85.7817V81.3578H55.1281V85.7817C59.9011 86.6664 62.3759 89.6747 62.3759 89.6747Z" fill="url(#paint7_linear_477_4995)"/>
<defs>
<filter id="filter0_d_477_4995" x="33.7925" y="0.223972" width="202.297" height="238.036" filterUnits="userSpaceOnUse" color-interpolation-filters="sRGB">
<feFlood flood-opacity="0" result="BackgroundImageFix"/>
<feColorMatrix in="SourceAlpha" type="matrix" values="0 0 0 0 0 0 0 0 0 0 0 0 0 0 0 0 0 0 127 0" result="hardAlpha"/>
<feOffset dy="19.5052"/>
<feGaussianBlur stdDeviation="19.5052"/>
<feColorMatrix type="matrix" values="0 0 0 0 0.397708 0 0 0 0 0.47749 0 0 0 0 0.575 0 0 0 0.26 0"/>
<feBlend mode="normal" in2="BackgroundImageFix" result="effect1_dropShadow_477_4995"/>
<feBlend mode="normal" in="SourceGraphic" in2="effect1_dropShadow_477_4995" result="shape"/>
</filter>
<filter id="filter1_d_477_4995" x="142.159" y="75.1123" width="142.367" height="168.634" filterUnits="userSpaceOnUse" color-interpolation-filters="sRGB">
<feFlood flood-opacity="0" result="BackgroundImageFix"/>
<feColorMatrix in="SourceAlpha" type="matrix" values="0 0 0 0 0 0 0 0 0 0 0 0 0 0 0 0 0 0 127 0" result="hardAlpha"/>
<feOffset dy="19.5052"/>
<feGaussianBlur stdDeviation="19.5052"/>
<feColorMatrix type="matrix" values="0 0 0 0 0.397708 0 0 0 0 0.47749 0 0 0 0 0.575 0 0 0 0.18 0"/>
<feBlend mode="normal" in2="BackgroundImageFix" result="effect1_dropShadow_477_4995"/>
<feBlend mode="normal" in="SourceGraphic" in2="effect1_dropShadow_477_4995" result="shape"/>
</filter>
<filter id="filter2_d_477_4995" x="0.814433" y="59.9355" width="101.733" height="101.632" filterUnits="userSpaceOnUse" color-interpolation-filters="sRGB">
<feFlood flood-opacity="0" result="BackgroundImageFix"/>
<feColorMatrix in="SourceAlpha" type="matrix" values="0 0 0 0 0 0 0 0 0 0 0 0 0 0 0 0 0 0 127 0" result="hardAlpha"/>
<feOffset dy="8.86598"/>
<feGaussianBlur stdDeviation="7.09278"/>
<feColorMatrix type="matrix" values="0 0 0 0 0.1125 0 0 0 0 0.295916 0 0 0 0 1 0 0 0 0.22 0"/>
<feBlend mode="normal" in2="BackgroundImageFix" result="effect1_dropShadow_477_4995"/>
<feBlend mode="normal" in="SourceGraphic" in2="effect1_dropShadow_477_4995" result="shape"/>
</filter>
<linearGradient id="paint0_linear_477_4995" x1="39.8981" y1="161.636" x2="45.6124" y2="161.636" gradientUnits="userSpaceOnUse">
<stop stop-color="#FF66A9"/>
<stop offset="1" stop-color="#F53689"/>
</linearGradient>
<linearGradient id="paint1_linear_477_4995" x1="182.246" y1="20.1387" x2="187.961" y2="20.1387" gradientUnits="userSpaceOnUse">
<stop stop-color="#FF66A9"/>
<stop offset="1" stop-color="#F53689"/>
</linearGradient>
<linearGradient id="paint2_linear_477_4995" x1="234.312" y1="43.1373" x2="239.679" y2="43.1373" gradientUnits="userSpaceOnUse">
<stop stop-color="#83A6FF"/>
<stop offset="1" stop-color="#5A78FF"/>
</linearGradient>
<linearGradient id="paint3_linear_477_4995" x1="135.34" y1="152.553" x2="172.443" y2="152.553" gradientUnits="userSpaceOnUse">
<stop stop-color="#83A6FF"/>
<stop offset="1" stop-color="#5A78FF"/>
</linearGradient>
<linearGradient id="paint4_linear_477_4995" x1="188.127" y1="132.748" x2="199.279" y2="131.96" gradientUnits="userSpaceOnUse">
<stop stop-color="#FF66A9"/>
<stop offset="1" stop-color="#F53689"/>
</linearGradient>
<linearGradient id="paint5_linear_477_4995" x1="31.9386" y1="71.8782" x2="72.4101" y2="133.451" gradientUnits="userSpaceOnUse">
<stop stop-color="#83A6FF"/>
<stop offset="1" stop-color="#5A78FF"/>
</linearGradient>
<linearGradient id="paint6_linear_477_4995" x1="58.1029" y1="107.5" x2="76.773" y2="128.51" gradientUnits="userSpaceOnUse">
<stop stop-color="#4F6AFF"/>
<stop offset="1" stop-color="#657EFF" stop-opacity="0"/>
</linearGradient>
<linearGradient id="paint7_linear_477_4995" x1="61.6872" y1="122.745" x2="43.929" y2="87.5609" gradientUnits="userSpaceOnUse">
<stop offset="0.0113208" stop-color="#C2D1FF"/>
<stop offset="1" stop-color="white"/>
</linearGradient>
</defs>
</svg>
