<svg width="280" height="254" viewBox="0 0 280 254" fill="none" xmlns="http://www.w3.org/2000/svg">
<path d="M212.396 105.308C212.396 125.521 205.604 144.265 194.222 159.333C187.981 167.419 180.454 174.585 171.826 180.098C157.874 189.286 141.169 194.615 123.179 194.615C73.7971 194.432 33.7778 154.372 33.7778 105.308C33.7778 55.8759 73.7971 15.9999 122.995 15.9999C140.985 15.9999 157.691 21.3289 171.642 30.3332C180.27 35.846 187.797 43.0127 194.039 51.0982C205.604 66.1665 212.396 84.9101 212.396 105.308Z" fill="#007C87"/>
<path d="M28.8213 171.278C30.4734 171.278 31.942 169.991 31.942 168.154C31.942 166.5 30.657 165.03 28.8213 165.03C27.1691 165.03 25.7005 166.316 25.7005 168.154C25.8841 169.991 27.1691 171.278 28.8213 171.278Z" fill="#06838F"/>
<path d="M176.783 24.4529C178.435 24.4529 179.903 23.1666 179.903 21.329C179.903 19.6752 178.618 18.2051 176.783 18.2051C175.13 18.2051 173.662 19.4914 173.662 21.329C173.662 22.9829 175.13 24.4529 176.783 24.4529Z" fill="#00838F"/>
<path d="M232.039 77.9274C234.792 75.3547 234.976 71.1282 232.406 68.3718C229.836 65.6154 225.613 65.4317 222.676 68.0043C219.923 70.577 219.739 74.8035 222.309 77.5599C224.879 80.3163 229.285 80.5 232.039 77.9274Z" fill="#EAEEF9"/>
<path d="M230.57 48.1579C232.222 48.1579 233.507 46.8716 233.507 45.2178C233.507 43.5639 232.222 42.2776 230.57 42.2776C228.918 42.2776 227.633 43.5639 227.633 45.2178C227.633 46.8716 228.918 48.1579 230.57 48.1579Z" fill="#00838F"/>
<g filter="url(#filter0_d_487_4890)">
<path d="M187.72 61.8144L189.082 179.923C189.082 183.843 185.847 187.081 181.931 187.081H67.177C63.261 187.081 60.0261 183.843 60.0261 179.923V28.0691C60.0261 24.1492 63.261 20.911 67.177 20.911H150.433L187.72 61.8144Z" fill="white"/>
</g>
<path d="M150.433 21.0813V53.6336C150.433 58.0648 154.349 61.9847 158.946 61.9847H187.89" fill="#F0F4F8"/>
<path d="M82.5004 79.88C81.8193 79.88 81.1383 79.1982 81.1383 78.5165C81.1383 77.8348 81.8193 77.1531 82.5004 77.1531H164.224C164.905 77.1531 165.587 77.8348 165.587 78.5165C165.587 79.1982 164.905 79.88 164.224 79.88H82.5004V79.88Z" fill="#CED7E2"/>
<path d="M82.5004 90.4469C81.8193 90.4469 81.1383 89.7651 81.1383 89.0834C81.1383 88.4017 81.8193 87.72 82.5004 87.72H164.224C164.905 87.72 165.587 88.4017 165.587 89.0834C165.587 89.7651 164.905 90.4469 164.224 90.4469H82.5004Z" fill="#CED7E2"/>
<path d="M82.5004 100.843C81.8193 100.843 81.1383 100.161 81.1383 99.4794C81.1383 98.7977 81.8193 98.116 82.5004 98.116H164.224C164.905 98.116 165.587 98.7977 165.587 99.4794C165.587 100.161 164.905 100.843 164.224 100.843H82.5004Z" fill="#CED7E2"/>
<path d="M82.5004 111.41C81.8193 111.41 81.1383 110.728 81.1383 110.046C81.1383 109.365 81.8193 108.683 82.5004 108.683H164.224C164.905 108.683 165.587 109.365 165.587 110.046C165.587 110.728 164.905 111.41 164.224 111.41H82.5004Z" fill="#CED7E2"/>
<path d="M82.5004 121.806C81.8193 121.806 81.1383 121.124 81.1383 120.443C81.1383 119.761 81.8193 119.079 82.5004 119.079H164.224C164.905 119.079 165.587 119.761 165.587 120.443C165.587 121.124 164.905 121.806 164.224 121.806H82.5004Z" fill="#CED7E2"/>
<path d="M82.5004 132.202C81.8193 132.202 81.1383 131.521 81.1383 130.839C81.1383 130.157 81.8193 129.475 82.5004 129.475H118.425C119.106 129.475 119.787 130.157 119.787 130.839C119.787 131.521 119.106 132.202 118.425 132.202H82.5004Z" fill="#CED7E2"/>
<path d="M120.809 53.804H82.6706C81.8193 53.804 81.1383 53.1222 81.1383 52.2701C81.1383 51.4179 81.8193 50.7362 82.6706 50.7362H120.809C121.66 50.7362 122.341 51.4179 122.341 52.2701C122.341 52.9518 121.66 53.804 120.809 53.804Z" fill="#CED7E2"/>
<path d="M101.569 61.8143H82.6706C81.8193 61.8143 81.1383 61.1326 81.1383 60.2805C81.1383 59.4283 81.8193 58.7466 82.6706 58.7466H101.569C102.421 58.7466 103.102 59.4283 103.102 60.2805C103.102 61.1326 102.421 61.8143 101.569 61.8143Z" fill="#CED7E2"/>
<path d="M157.754 164.073C157.414 161.687 157.244 159.982 155.541 159.301C152.817 158.619 151.966 162.198 149.241 165.095C148.39 165.947 147.198 166.629 146.177 167.311C145.836 167.481 145.155 167.822 144.985 167.14C144.304 165.095 144.985 166.118 147.879 162.88C149.242 161.346 150.093 159.471 149.752 157.085C149.582 155.722 148.731 154.529 147.369 154.017C146.007 153.506 144.645 153.676 143.623 154.869C141.239 157.767 141.92 159.642 141.75 163.902C141.75 164.243 141.58 164.584 141.239 164.754C138.856 166.118 136.302 166.97 133.237 167.311C133.237 167.14 133.237 167.14 133.237 167.14C134.77 165.095 137.834 161.346 138.515 155.21C138.856 152.824 138.856 150.438 137.664 148.223C135.451 144.132 129.321 144.644 126.597 149.586C123.873 155.04 124.384 163.221 128.129 167.993C127.278 168.674 126.597 169.356 125.746 169.867C125.235 170.208 125.065 171.06 125.405 171.572C125.746 172.253 126.767 172.424 127.448 171.913C130.173 169.697 130.002 169.867 130.343 169.697C130.854 169.527 131.364 169.697 131.875 169.697C133.748 169.697 134.94 169.527 136.302 169.356C136.983 169.186 141.58 167.481 141.75 167.481C141.75 167.481 141.75 167.652 141.92 167.822C142.431 169.697 143.453 170.379 145.496 170.208C147.028 170.038 148.39 169.356 149.582 168.333C150.944 166.97 153.157 164.243 154.349 162.539C154.69 163.732 154.69 164.754 155.03 165.777C155.711 167.652 157.584 167.993 158.776 166.459C160.138 164.925 160.649 162.88 162.181 162.028C162.692 161.857 163.032 161.346 163.032 160.835C163.032 159.812 162.011 159.301 161.16 159.642C159.798 160.494 158.776 162.198 157.754 164.073ZM130.343 166.459C128.981 164.754 128.47 162.88 128.129 160.664C127.448 157.596 127.789 154.358 128.981 151.461C129.662 149.927 130.513 148.734 132.216 148.393C133.918 148.052 135.11 148.393 135.451 150.097C136.983 156.062 134.599 161.687 130.343 166.459ZM144.815 157.426C145.836 155.381 147.028 157.255 146.858 158.108C146.517 159.13 146.007 159.982 145.496 160.835C145.155 161.346 144.815 161.687 144.304 162.198C144.134 160.494 144.134 158.96 144.815 157.426Z" fill="#00838F"/>
<path d="M96.8021 171.061C95.6103 172.254 93.9077 172.935 92.5456 171.913C90.5025 170.379 89.8215 170.038 88.4594 169.868C86.7568 169.697 85.2245 169.527 84.7137 167.652C84.5435 167.141 84.5435 166.8 84.5435 166.289C84.3732 165.095 83.8624 163.902 83.0112 162.88C81.8193 161.516 80.968 160.323 81.8193 158.79C82.8409 157.085 83.8624 156.404 83.8624 154.358C83.8624 153.677 83.8624 153.165 84.0327 152.654C84.3732 151.291 85.565 150.268 86.9271 150.268C87.4379 150.268 87.9487 150.098 88.4594 150.098C90.162 149.927 90.6728 148.734 92.8861 147.882C93.5672 147.541 94.2482 147.712 94.9292 148.052C95.44 148.393 95.9508 148.734 96.6318 149.245C98.1642 150.438 99.1857 149.927 101.399 150.609C102.421 150.95 102.931 151.802 103.102 152.654C103.102 153.677 103.442 154.87 103.783 155.722C104.634 157.426 106.337 158.278 106.166 160.153C106.166 160.494 105.996 161.005 105.826 161.176C104.974 162.198 104.293 163.562 103.783 164.925C103.612 165.436 103.612 165.777 103.612 166.289C103.612 167.311 103.272 168.163 102.591 168.675C100.548 170.72 98.6749 169.186 96.8021 171.061ZM86.0758 164.755C88.7999 168.675 94.078 169.868 98.1642 167.141C102.08 164.755 103.102 159.301 100.718 155.551C100.718 155.551 100.718 155.381 100.548 155.381C97.9939 151.461 92.3754 150.268 88.4594 152.995C84.5435 155.381 83.5219 160.835 85.9055 164.584C86.0758 164.584 86.0758 164.755 86.0758 164.755Z" fill="#CED7E2"/>
<path d="M89.3108 154.188C92.5457 151.973 97.1427 152.825 99.5263 156.233C101.74 159.301 100.888 163.732 97.8237 165.948L97.6535 166.118C94.4186 168.334 89.8216 167.311 87.438 164.073C85.2246 161.005 86.0759 156.574 89.1406 154.359C89.1406 154.188 89.1406 154.188 89.3108 154.188Z" fill="#CED7E2"/>
<path d="M184.86 105.491C186.145 105.124 186.879 103.654 186.512 102.367C186.145 101.081 184.676 100.346 183.391 100.714C182.106 101.081 181.372 102.551 181.739 103.838C182.106 105.124 183.575 105.859 184.86 105.491Z" fill="#EAEEF9"/>
<g filter="url(#filter1_d_487_4890)">
<path d="M239.381 102.551V183.773C239.381 185.06 238.647 186.162 237.546 186.714C229.285 190.389 218.27 192.778 205.971 192.778C193.855 192.778 182.84 190.573 174.396 186.714C173.295 186.162 172.56 185.06 172.56 183.773V102.551C172.56 100.346 174.396 98.6923 176.599 98.6923H235.343C237.546 98.5085 239.381 100.346 239.381 102.551Z" fill="#CED7E2"/>
</g>
<path d="M239.381 102.551V127.175H172.56V102.551C172.56 100.346 174.396 98.6923 176.599 98.6923H235.343C237.546 98.5085 239.381 100.346 239.381 102.551Z" fill="#CED7E2"/>
<path d="M234.425 104.021H177.517V121.846H234.241V104.021H234.425Z" fill="white"/>
<path d="M232.956 105.675V120.56H178.985V105.675H232.956ZM235.894 102.551H232.956H178.985H176.048V105.492V120.376V123.316H178.985H232.773H235.71V120.376V105.492V102.551H235.894Z" fill="#A3AFC2"/>
<path d="M188.898 142.06H182.106C180.821 142.06 179.903 141.141 179.903 139.855V136.18C179.903 134.893 180.821 133.974 182.106 133.974H188.898C190.183 133.974 191.101 134.893 191.101 136.18V139.855C191.285 140.957 190.183 142.06 188.898 142.06Z" fill="#A3AFC2"/>
<path d="M188.898 152.167H182.106C180.821 152.167 179.903 151.248 179.903 149.962V146.286C179.903 145 180.821 144.081 182.106 144.081H188.898C190.183 144.081 191.101 145 191.101 146.286V149.962C191.285 151.064 190.183 152.167 188.898 152.167Z" fill="#A3AFC2"/>
<path d="M188.898 162.274H182.106C180.821 162.274 179.903 161.355 179.903 160.068V156.393C179.903 155.107 180.821 154.188 182.106 154.188H188.898C190.183 154.188 191.101 155.107 191.101 156.393V160.068C191.285 161.355 190.183 162.274 188.898 162.274Z" fill="#A3AFC2"/>
<path d="M188.898 172.38H182.106C180.821 172.38 179.903 171.462 179.903 170.175V166.5C179.903 165.214 180.821 164.295 182.106 164.295H188.898C190.183 164.295 191.101 165.214 191.101 166.5V170.175C191.285 171.278 190.183 172.38 188.898 172.38Z" fill="#A3AFC2"/>
<path d="M188.898 182.487H182.106C180.821 182.487 179.903 181.568 179.903 180.282V176.607C179.903 175.32 180.821 174.402 182.106 174.402H188.898C190.183 174.402 191.101 175.32 191.101 176.607V180.282C191.285 181.568 190.183 182.487 188.898 182.487Z" fill="#A3AFC2"/>
<path d="M203.217 142.06H196.425C195.14 142.06 194.222 141.141 194.222 139.855V136.18C194.222 134.893 195.14 133.974 196.425 133.974H203.217C204.502 133.974 205.42 134.893 205.42 136.18V139.855C205.42 140.957 204.502 142.06 203.217 142.06Z" fill="#A3AFC2"/>
<path d="M203.217 152.167H196.425C195.14 152.167 194.222 151.248 194.222 149.962V146.286C194.222 145 195.14 144.081 196.425 144.081H203.217C204.502 144.081 205.42 145 205.42 146.286V149.962C205.42 151.064 204.502 152.167 203.217 152.167Z" fill="#A3AFC2"/>
<path d="M203.217 162.274H196.425C195.14 162.274 194.222 161.355 194.222 160.068V156.393C194.222 155.107 195.14 154.188 196.425 154.188H203.217C204.502 154.188 205.42 155.107 205.42 156.393V160.068C205.42 161.355 204.502 162.274 203.217 162.274Z" fill="#A3AFC2"/>
<path d="M203.217 172.38H196.425C195.14 172.38 194.222 171.462 194.222 170.175V166.5C194.222 165.214 195.14 164.295 196.425 164.295H203.217C204.502 164.295 205.42 165.214 205.42 166.5V170.175C205.42 171.278 204.502 172.38 203.217 172.38Z" fill="#A3AFC2"/>
<path d="M203.217 182.487H196.425C195.14 182.487 194.222 181.568 194.222 180.282V176.607C194.222 175.32 195.14 174.402 196.425 174.402H203.217C204.502 174.402 205.42 175.32 205.42 176.607V180.282C205.42 181.568 204.502 182.487 203.217 182.487Z" fill="#A3AFC2"/>
<path d="M217.353 142.06H210.56C209.275 142.06 208.357 141.141 208.357 139.855V136.18C208.357 134.893 209.275 133.974 210.56 133.974H217.353C218.638 133.974 219.555 134.893 219.555 136.18V139.855C219.739 140.957 218.638 142.06 217.353 142.06Z" fill="#A3AFC2"/>
<path d="M217.353 152.167H210.56C209.275 152.167 208.357 151.248 208.357 149.962V146.286C208.357 145 209.275 144.081 210.56 144.081H217.353C218.638 144.081 219.555 145 219.555 146.286V149.962C219.739 151.064 218.638 152.167 217.353 152.167Z" fill="#A3AFC2"/>
<path d="M217.353 162.274H210.56C209.275 162.274 208.357 161.355 208.357 160.068V156.393C208.357 155.107 209.275 154.188 210.56 154.188H217.353C218.638 154.188 219.555 155.107 219.555 156.393V160.068C219.739 161.355 218.638 162.274 217.353 162.274Z" fill="#A3AFC2"/>
<path d="M217.353 172.38H210.56C209.275 172.38 208.357 171.462 208.357 170.175V166.5C208.357 165.214 209.275 164.295 210.56 164.295H217.353C218.638 164.295 219.555 165.214 219.555 166.5V170.175C219.739 171.278 218.638 172.38 217.353 172.38Z" fill="#A3AFC2"/>
<path d="M217.353 182.487H210.56C209.275 182.487 208.357 181.568 208.357 180.282V176.607C208.357 175.32 209.275 174.402 210.56 174.402H217.353C218.638 174.402 219.555 175.32 219.555 176.607V180.282C219.739 181.568 218.638 182.487 217.353 182.487Z" fill="#A3AFC2"/>
<path d="M231.488 142.06H224.695C223.41 142.06 222.492 141.141 222.492 139.855V136.18C222.492 134.893 223.41 133.974 224.695 133.974H231.488C232.773 133.974 233.69 134.893 233.69 136.18V139.855C233.69 140.957 232.773 142.06 231.488 142.06Z" fill="#A3AFC2"/>
<path d="M231.488 152.167H224.695C223.41 152.167 222.492 151.248 222.492 149.962V146.286C222.492 145 223.41 144.081 224.695 144.081H231.488C232.773 144.081 233.69 145 233.69 146.286V149.962C233.69 151.064 232.773 152.167 231.488 152.167Z" fill="#A3AFC2"/>
<path d="M231.488 162.274H224.695C223.41 162.274 222.492 161.355 222.492 160.068V156.393C222.492 155.107 223.41 154.188 224.695 154.188H231.488C232.773 154.188 233.69 155.107 233.69 156.393V160.068C233.69 161.355 232.773 162.274 231.488 162.274Z" fill="#A3AFC2"/>
<path d="M231.488 172.38H224.695C223.41 172.38 222.492 171.462 222.492 170.175V166.5C222.492 165.214 223.41 164.295 224.695 164.295H231.488C232.773 164.295 233.69 165.214 233.69 166.5V170.175C233.69 171.278 232.773 172.38 231.488 172.38Z" fill="#A3AFC2"/>
<path d="M231.488 182.487H224.695C223.41 182.487 222.492 181.568 222.492 180.282V176.607C222.492 175.32 223.41 174.402 224.695 174.402H231.488C232.773 174.402 233.69 175.32 233.69 176.607V180.282C233.69 181.568 232.773 182.487 231.488 182.487Z" fill="#A3AFC2"/>
<path d="M228.367 108.614L229.468 107.513H223.961L225.063 108.614H228.367Z" fill="#A3AFC2"/>
<path d="M225.246 117.068L224.145 118.17H229.652L228.551 117.068H225.246Z" fill="#A3AFC2"/>
<path d="M228.551 113.761V116.884L229.652 117.987V113.577L229.101 113.026L228.551 113.761Z" fill="#A3AFC2"/>
<path d="M228.551 108.799V112.107L229.285 112.658L229.836 112.107V107.697L228.551 108.799Z" fill="#A3AFC2"/>
<path d="M225.063 112.107V108.799L223.961 107.697V112.107L224.328 112.658L225.063 112.107Z" fill="#A3AFC2"/>
<path d="M225.063 113.761L224.328 113.026L223.961 113.577V118.171L225.063 117.068V113.761Z" fill="#A3AFC2"/>
<path d="M76.1835 106.226C76.1835 111.004 75.2656 115.782 73.6135 120.009C69.5748 130.667 60.7632 138.936 49.9323 142.427C46.2608 143.714 42.2222 144.265 38.1835 144.265C17.0724 144.449 0 127.359 0 106.226C0 85.094 17.0724 68.188 38.1835 68.188C59.1111 68.188 76.1835 85.2777 76.1835 106.226Z" fill="#026771"/>
<path d="M74.9368 115.916C72.3348 127.885 60.8861 140.374 48.3967 142.976L25.517 118.171L47.9131 117.803L33.0436 99.4272L37.4494 90.7904L38.0001 88.034L41.6716 84.7263L74.9368 115.916Z" fill="url(#paint0_linear_487_4890)"/>
<path d="M49.1981 93.5467L44.9758 97.9569C44.9758 97.9569 42.5894 95.2005 38.9179 95.2005C36.1642 95.2005 34.5121 96.8544 34.5121 98.692C34.5121 104.756 50.8502 101.265 50.8502 113.025C50.8502 117.987 47.7295 122.03 41.8551 123.132V127.726H35.7971V123.316C29.1884 122.397 25.8841 118.171 25.8841 118.171L30.1063 113.944C30.1063 113.944 32.8599 117.436 37.8164 117.436C41.3043 117.436 43.3237 115.598 43.3237 113.209C43.3237 107.145 26.9855 110.636 26.9855 98.8757C26.9855 94.4655 30.2899 90.4227 35.6135 89.5039V84.9099H41.6715V89.5039C46.628 90.4227 49.1981 93.5467 49.1981 93.5467Z" fill="url(#paint1_linear_487_4890)"/>
<defs>
<filter id="filter0_d_487_4890" x="19.5154" y="0.655659" width="210.077" height="247.192" filterUnits="userSpaceOnUse" color-interpolation-filters="sRGB">
<feFlood flood-opacity="0" result="BackgroundImageFix"/>
<feColorMatrix in="SourceAlpha" type="matrix" values="0 0 0 0 0 0 0 0 0 0 0 0 0 0 0 0 0 0 127 0" result="hardAlpha"/>
<feOffset dy="20.2554"/>
<feGaussianBlur stdDeviation="20.2554"/>
<feColorMatrix type="matrix" values="0 0 0 0 0.397708 0 0 0 0 0.47749 0 0 0 0 0.575 0 0 0 0.26 0"/>
<feBlend mode="normal" in2="BackgroundImageFix" result="effect1_dropShadow_487_4890"/>
<feBlend mode="normal" in="SourceGraphic" in2="effect1_dropShadow_487_4890" result="shape"/>
</filter>
<filter id="filter1_d_487_4890" x="132.05" y="78.4242" width="147.843" height="175.12" filterUnits="userSpaceOnUse" color-interpolation-filters="sRGB">
<feFlood flood-opacity="0" result="BackgroundImageFix"/>
<feColorMatrix in="SourceAlpha" type="matrix" values="0 0 0 0 0 0 0 0 0 0 0 0 0 0 0 0 0 0 127 0" result="hardAlpha"/>
<feOffset dy="20.2554"/>
<feGaussianBlur stdDeviation="20.2554"/>
<feColorMatrix type="matrix" values="0 0 0 0 0.397708 0 0 0 0 0.47749 0 0 0 0 0.575 0 0 0 0.18 0"/>
<feBlend mode="normal" in2="BackgroundImageFix" result="effect1_dropShadow_487_4890"/>
<feBlend mode="normal" in="SourceGraphic" in2="effect1_dropShadow_487_4890" result="shape"/>
</filter>
<linearGradient id="paint0_linear_487_4890" x1="44.7608" y1="112.058" x2="64.1489" y2="133.875" gradientUnits="userSpaceOnUse">
<stop stop-color="#026068"/>
<stop offset="1" stop-color="#03636B"/>
</linearGradient>
<linearGradient id="paint1_linear_487_4890" x1="48.4828" y1="127.889" x2="30.0417" y2="91.3516" gradientUnits="userSpaceOnUse">
<stop offset="0.0113208" stop-color="#CEFBFF"/>
<stop offset="1" stop-color="white"/>
</linearGradient>
</defs>
</svg>
