<svg width="200" height="200" viewBox="0 0 200 200" fill="none" xmlns="http://www.w3.org/2000/svg">
<g clip-path="url(#clip0_510_4870)">
<rect width="200" height="200" rx="50" fill="#00838F"/>
<path d="M63.3155 114.382H51.5861L47.742 135.968H30L42.518 65H72.5808C80.0062 65 85.2959 66.7085 88.4501 70.1255C90.7499 72.7539 91.8999 76.1052 91.8999 80.1793C91.8999 81.5592 91.7685 83.0049 91.5056 84.5162L89.5343 95.6542C88.5486 101.108 85.6573 105.609 80.8604 109.158C76.0635 112.641 70.2152 114.382 63.3155 114.382ZM66.3711 80.3764H57.5001L54.2474 99.0055H63.0198C68.4082 99.0055 71.5294 96.6071 72.3837 91.8101L73.0736 87.7689C73.2051 87.1775 73.2708 86.389 73.2708 85.4033C73.2708 84.4176 72.7779 83.3334 71.7923 82.1506C70.8066 80.9678 68.9996 80.3764 66.3711 80.3764Z" fill="white"/>
<path d="M202.482 135.968H92.8555L105.373 65H215L212.24 80.3764H120.356L118.089 93.6829H204.453L201.693 109.059H115.329L113.357 120.592H205.242L202.482 135.968Z" fill="white"/>
</g>
<defs>
<clipPath id="clip0_510_4870">
<rect width="200" height="200" rx="50" fill="white"/>
</clipPath>
</defs>
</svg>
